<?xml version="1.0" encoding="UTF-8" standalone="no"?>
<svg
   version="1.0"
   width="1024.000000pt"
   height="1024.000000pt"
   viewBox="0 0 1024.000000 1024.000000"
   preserveAspectRatio="xMidYMid meet"
   id="svg68"
   sodipodi:docname="wholefoodguyfavicon.svg"
   inkscape:version="1.3.2 (091e20e, 2023-11-25)"
   xmlns:inkscape="http://www.inkscape.org/namespaces/inkscape"
   xmlns:sodipodi="http://sodipodi.sourceforge.net/DTD/sodipodi-0.dtd"
   xmlns="http://www.w3.org/2000/svg"
   xmlns:svg="http://www.w3.org/2000/svg">
  <defs
     id="defs68" />
  <sodipodi:namedview
     id="namedview68"
     pagecolor="#ffffff"
     bordercolor="#000000"
     borderopacity="0.25"
     inkscape:showpageshadow="2"
     inkscape:pageopacity="0.0"
     inkscape:pagecheckerboard="0"
     inkscape:deskcolor="#d1d1d1"
     inkscape:document-units="pt"
     inkscape:zoom="1.2670898"
     inkscape:cx="682.27206"
     inkscape:cy="682.66667"
     inkscape:window-width="3344"
     inkscape:window-height="2075"
     inkscape:window-x="0"
     inkscape:window-y="25"
     inkscape:window-maximized="0"
     inkscape:current-layer="svg68" />
  <g
     transform="translate(0.000000,1024.000000) scale(0.100000,-0.100000)"
     fill="#00363b"
     stroke="none"
     id="g19">
    <path
       d="M5200 8424 c-76 -10 -237 -47 -303 -71 -330 -119 -592 -359 -760 -698 -95 -191 -123 -312 -217 -940 -49 -321 -81 -400 -337 -821 -344 -566 -463 -950 -463 -1499 0 -261 35 -487 110 -718 106 -328 274 -618 501 -868 320 -352 805 -603 1305 -675 183 -26 474 -24 634 4 369 67 620 161 880 329 129 85 195 137 309 247 370 359 596 798 688 1336 26 151 25 601 -1 745 -50 276 -132 526 -251 765 -58 117 -60 121 -240 415 -140 229 -188 325 -229 455 -15 47 -58 265 -96 485 -88 508 -116 609 -231 811 -205 359 -525 596 -919 679 -73 16 -310 27 -380 19z m354 -353 c173 -45 348 -145 469 -267 51 -51 67 -75 67 -96 0 -24 4 -28 28 -28 21 0 34 -10 59 -48 82 -122 140 -277 168 -452 9 -58 25 -154 36 -215 11 -60 31 -182 44 -270 55 -348 112 -502 312 -835 268 -446 350 -616 418 -863 55 -203 67 -290 72 -522 5 -240 0 -293 -47 -519 -34 -164 -65 -261 -132 -411 -94 -210 -197 -354 -393 -551 -156 -157 -307 -266 -490 -354 -171 -82 -400 -149 -586 -171 -155 -18 -501 -7 -622 20 -421 93 -803 327 -1060 650 -255 322 -389 657 -437 1092 -19 174 13 533 66 738 69 265 133 403 362 781 246 407 306 560 367 945 98 623 113 693 182 829 46 91 80 142 166 244 132 156 319 267 537 318 82 20 314 11 414 -15z"
       id="path17" />
    <path
       d="M5195 5624 c-227 -47 -332 -87 -469 -178 -212 -141 -395 -391 -455 -621 -57 -214 -46 -520 25 -715 48 -134 154 -299 258 -405 304 -306 775 -398 1201 -233 240 93 449 278 555 493 97 198 125 323 125 560 -1 154 -3 179 -28 266 -29 105 -34 155 -15 161 8 3 -6 27 -38 64 -28 32 -74 94 -103 136 -161 235 -440 414 -720 462 -85 14 -284 20 -336 10z m330 -344 c72 -18 134 -45 234 -101 67 -37 186 -162 240 -253 77 -129 111 -258 111 -420 0 -130 -15 -214 -54 -310 -43 -108 -98 -188 -184 -267 -85 -78 -158 -123 -265 -163 -80 -29 -87 -30 -262 -31 -165 0 -186 2 -255 25 -146 47 -344 210 -401 329 -12 25 -26 53 -31 61 -63 108 -83 198 -83 365 0 207 33 321 136 471 115 166 291 276 501 313 74 14 221 5 313 -19z"
       id="path18" />
    <path
       d="M3676 1512 c-34 -37 -43 -89 -22 -130 35 -67 -111 -62 1760 -60 l1698 3 29 33 c43 47 41 106 -4 150 l-33 32 -1700 0 -1700 0 -28 -28z"
       id="path19" />
  </g>
  <g
     transform="translate(0.000000,1024.000000) scale(0.100000,-0.100000)"
     fill="#ffeeb2"
     stroke="none"
     id="g34">
    <path
       d="M5330 7714 l0 -60 -71 -11 c-110 -17 -207 -71 -304 -168 -133 -132 -156 -190 -205 -515 -17 -113 -47 -294 -66 -403 -19 -109 -34 -200 -34 -202 0 -10 329 -5 335 5 3 6 22 10 41 10 19 0 34 5 34 10 0 6 14 10 30 10 27 0 30 3 30 32 0 36 20 98 32 98 4 0 8 10 8 23 0 43 15 51 94 55 l75 4 3 297 3 296 28 56 c37 76 94 139 158 174 45 24 69 30 139 33 99 5 148 -12 224 -79 24 -21 49 -39 55 -39 51 0 -77 196 -182 278 -34 27 -78 58 -97 69 -61 36 -180 73 -256 80 l-74 6 0 -59z"
       id="path34" />
  </g>
  <g
     transform="translate(0.000000,1024.000000) scale(0.100000,-0.100000)"
     fill="#fee49b"
     stroke="none"
     id="g56">
    <path
       d="M5190 6593 c-20 -8 -30 -24 -30 -50 0 -13 -4 -23 -8 -23 -12 0 -32 -62 -32 -98 0 -29 -3 -32 -30 -32 -16 0 -30 -4 -30 -10 0 -5 -15 -10 -34 -10 -19 0 -38 -4 -41 -10 -4 -6 -73 -10 -173 -11 l-167 0 -32 -67 c-48 -100 -234 -384 -255 -390 -10 -2 -18 -13 -18 -25 0 -25 -82 -194 -108 -224 -11 -13 -27 -23 -36 -23 -11 0 -16 -9 -16 -32 0 -22 -15 -54 -49 -102 -147 -214 -273 -511 -315 -746 -61 -338 -59 -483 11 -802 3 -16 12 -28 19 -28 8 0 26 -24 40 -52 72 -142 151 -234 267 -311 77 -51 130 -71 173 -63 52 10 53 30 1 85 -120 128 -195 294 -233 511 -22 130 -15 392 14 500 41 155 177 420 214 420 10 0 18 4 18 9 0 26 148 227 219 299 184 185 437 302 694 319 l77 6 0 483 0 484 -62 -1 c-35 0 -70 -3 -78 -6z"
       id="path56" />
  </g>
  <g
     transform="translate(0.000000,1024.000000) scale(0.100000,-0.100000)"
     fill="#01504f"
     stroke="none"
     id="g60">
    <path
       d="M5035 7930 c-115 -49 -217 -112 -243 -150 -29 -43 -25 -100 9 -136 36 -39 87 -33 173 20 79 50 154 82 227 97 l49 11 0 52 c0 46 -4 56 -32 83 -32 30 -76 53 -101 53 -7 0 -43 -14 -82 -30z"
       id="path57" />
    <path
       d="M6080 7285 c0 -224 5 -424 10 -462 57 -365 71 -438 114 -570 64 -196 118 -300 406 -788 127 -215 225 -461 271 -675 23 -110 38 -370 21 -370 -6 0 -77 73 -158 163 -256 280 -338 367 -351 367 -20 0 -15 -54 14 -159 25 -87 27 -112 28 -266 0 -237 -28 -362 -125 -560 -106 -215 -315 -400 -555 -493 -124 -48 -287 -82 -396 -82 l-39 0 0 -310 0 -310 -62 0 c-95 0 -251 26 -363 61 -266 83 -481 213 -665 405 -294 305 -438 643 -457 1072 l-6 142 -94 0 c-80 0 -96 -3 -113 -20 -14 -14 -33 -20 -65 -20 l-45 0 0 -47 c0 -27 5 -88 10 -138 49 -432 183 -766 437 -1086 257 -323 639 -557 1060 -650 121 -27 467 -38 622 -20 186 22 415 89 586 171 183 88 334 197 490 354 196 197 299 341 393 551 67 150 98 247 132 411 47 226 52 279 47 519 -5 232 -17 319 -72 522 -68 247 -150 417 -418 863 -200 333 -257 487 -312 835 -13 88 -33 210 -44 270 -11 61 -27 157 -36 215 -28 175 -86 330 -168 452 -27 41 -37 48 -64 48 l-33 0 0 -395z"
       id="path58" />
    <path
       d="M4565 7441 c-52 -22 -73 -73 -104 -251 -83 -480 -121 -722 -121 -763 0 -109 116 -147 179 -58 14 20 24 57 31 122 13 118 66 453 85 539 7 36 21 103 30 149 9 47 21 93 26 102 15 29 10 102 -9 125 -32 40 -74 52 -117 35z"
       id="path59" />
    <path
       d="M4172 5967 c-13 -13 -38 -61 -57 -107 -19 -46 -39 -88 -45 -94 -16 -16 -12 -85 7 -117 21 -34 48 -44 100 -34 46 8 65 30 119 141 55 114 58 161 15 205 -39 38 -106 41 -139 6z"
       id="path60" />
  </g>
  <g
     transform="translate(0.000000,1024.000000) scale(0.100000,-0.100000)"
     fill="#ffd84d"
     stroke="none"
     id="g62">
    <path
       d="M5330 8051 l0 -51 -42 -1 c-60 -1 -141 -22 -146 -36 -2 -7 3 -13 12 -13 9 0 34 -16 56 -36 37 -34 40 -40 40 -89 l0 -52 113 -6 c163 -7 260 -44 394 -149 105 -82 233 -278 182 -278 -6 0 -31 18 -55 39 -76 67 -125 84 -224 79 -70 -3 -94 -9 -139 -33 -64 -35 -121 -98 -158 -174 l-28 -56 -3 -447 -3 -448 126 0 c118 0 125 1 125 20 0 13 7 20 20 20 11 0 20 7 20 15 0 11 12 15 44 15 34 0 47 5 62 25 10 14 24 25 30 25 11 0 24 44 24 83 0 32 33 95 53 100 9 3 17 15 17 26 0 12 5 21 10 21 6 0 10 7 10 15 0 8 5 15 10 15 6 0 10 9 10 21 0 12 8 23 20 26 11 3 20 13 20 22 0 10 8 26 18 37 10 11 22 32 26 47 6 25 10 27 56 27 l50 0 0 394 c0 216 3 413 6 437 6 44 5 45 -62 112 -161 162 -391 271 -616 292 l-78 7 0 -51z"
       id="path61" />
    <path
       d="M4017 5713 c-37 -42 -183 -289 -242 -408 -58 -119 -117 -281 -144 -396 -24 -104 -51 -304 -51 -379 l0 -80 99 0 98 0 7 73 c20 205 73 419 143 584 47 112 145 292 204 379 29 41 49 81 49 97 0 24 -4 27 -32 27 -18 0 -38 4 -44 8 -22 15 -44 58 -44 84 0 32 -19 37 -43 11z"
       id="path62" />
  </g>
  <g
     transform="translate(0.000000,1024.000000) scale(0.100000,-0.100000)"
     fill="#ff5954"
     stroke="none"
     id="g64">
    <path
       d="M5330 5136 c0 -99 -5 -187 -11 -203 -16 -43 -48 -72 -119 -108 -83 -42 -114 -76 -134 -146 -40 -139 -125 -205 -251 -197 -54 3 -72 10 -118 41 -38 26 -64 37 -90 37 l-37 0 0 -66 c0 -37 5 -95 12 -130 l11 -64 43 0 c44 0 94 17 94 32 0 4 153 8 340 8 220 0 340 4 340 10 0 6 7 10 15 10 8 0 15 4 15 10 0 5 11 12 25 16 14 3 25 10 25 15 0 5 7 9 15 9 8 0 15 5 15 10 0 6 6 10 14 10 7 0 16 9 19 20 3 11 12 20 21 20 9 0 16 7 16 15 0 8 7 15 15 15 8 0 15 6 15 14 0 8 9 18 20 21 11 3 20 15 20 26 0 12 7 19 20 19 11 0 20 7 20 15 0 12 17 15 91 15 l91 0 -4 138 c-6 160 -29 247 -100 372 -40 69 -48 77 -109 107 -73 37 -182 67 -276 77 l-63 7 0 -175z"
       id="path63" />
    <path
       d="M4910 3371 l0 -92 123 -137 c67 -75 134 -152 149 -170 24 -29 32 -32 82 -32 l56 0 0 224 0 223 -88 6 c-73 5 -184 29 -299 63 -23 6 -23 5 -23 -85z"
       id="path64" />
  </g>
  <g
     transform="translate(0.000000,1024.000000) scale(0.100000,-0.100000)"
     fill="#fecf35"
     stroke="none"
     id="g66">
    <path
       d="M5974 6833 c-4 -15 -16 -36 -26 -47 -10 -11 -18 -27 -18 -37 0 -9 -9 -19 -20 -22 -12 -3 -20 -14 -20 -26 0 -12 -4 -21 -10 -21 -5 0 -10 -7 -10 -15 0 -8 -4 -15 -10 -15 -5 0 -10 -9 -10 -21 0 -11 -8 -23 -17 -26 -20 -5 -53 -68 -53 -100 0 -39 -13 -83 -24 -83 -6 0 -20 -11 -30 -25 -15 -20 -28 -25 -62 -25 -32 0 -44 -4 -44 -15 0 -8 -9 -15 -20 -15 -13 0 -20 -7 -20 -20 0 -19 -7 -20 -125 -20 l-125 0 0 -335 0 -335 53 0 c128 0 310 -46 442 -113 166 -83 329 -224 434 -376 33 -47 102 -134 153 -193 173 -198 479 -528 490 -528 17 0 2 260 -21 370 -46 214 -144 460 -271 675 -288 488 -342 592 -406 788 -42 130 -87 356 -109 550 l-6 57 -55 0 c-50 0 -54 -2 -60 -27z"
       id="path65" />
    <path
       d="M4258 4923 c-60 -100 -124 -247 -150 -343 -29 -108 -36 -370 -14 -500 38 -217 113 -383 233 -511 52 -55 51 -75 -1 -85 -43 -8 -96 12 -173 63 -116 77 -195 169 -267 311 -27 52 -46 67 -46 34 0 -27 56 -168 107 -266 126 -247 325 -466 573 -628 75 -50 255 -130 375 -167 112 -35 268 -61 363 -61 l62 0 0 85 0 85 -56 0 c-50 0 -58 3 -82 32 -15 18 -82 95 -149 170 l-123 137 0 93 0 94 -67 33 c-152 75 -303 201 -395 332 -156 220 -211 396 -211 679 -1 189 25 324 88 473 5 11 3 17 -7 17 -8 0 -35 -35 -60 -77z"
       id="path66" />
  </g>
  <g
     transform="translate(0.000000,1024.000000) scale(0.100000,-0.100000)"
     fill="#ff3f4d"
     stroke="none"
     id="g67">
    <path
       d="M5700 4595 c0 -8 -9 -15 -20 -15 -13 0 -20 -7 -20 -19 0 -11 -9 -23 -20 -26 -11 -3 -20 -13 -20 -21 0 -8 -7 -14 -15 -14 -8 0 -15 -6 -15 -14 0 -7 -9 -16 -20 -19 -11 -3 -20 -12 -20 -21 0 -9 -7 -16 -15 -16 -8 0 -15 -4 -15 -10 0 -5 -7 -10 -15 -10 -8 0 -15 -4 -15 -9 0 -5 -11 -12 -25 -15 -14 -4 -25 -11 -25 -16 0 -6 -7 -10 -15 -10 -8 0 -15 -4 -15 -10 0 -6 -120 -10 -340 -10 -187 0 -340 -4 -340 -8 0 -15 -49 -32 -92 -32 -39 0 -40 -1 -34 -27 15 -63 53 -119 107 -163 122 -97 255 -140 431 -140 138 0 222 20 345 80 117 57 224 149 290 248 40 61 87 188 98 265 l7 47 -91 0 c-74 0 -91 -3 -91 -15z"
       id="path67" />
  </g>
  <g
     transform="translate(0.000000,1024.000000) scale(0.100000,-0.100000)"
     fill="#5b2545"
     stroke="none"
     id="g68">
    <path
       d="M5752 5173 c2 -5 22 -46 46 -93 62 -125 82 -216 82 -375 0 -236 -48 -363 -195 -511 -79 -81 -102 -98 -195 -143 -126 -61 -210 -81 -348 -81 -172 0 -296 39 -419 131 -60 45 -67 35 -25 -32 81 -127 255 -264 392 -309 69 -23 90 -25 255 -25 175 1 182 2 262 31 107 40 180 85 265 163 86 79 141 159 184 267 70 174 73 414 6 604 -24 70 -92 181 -149 245 -68 76 -177 162 -161 128z"
       id="path68" />
  </g>
</svg>
